<?xml version="1.0" encoding="utf-8"?>
<!-- Generator: Adobe Illustrator 20.0.0, SVG Export Plug-In . SVG Version: 6.00 Build 0)  -->
<svg version="1.1" id="Layer_1" xmlns="http://www.w3.org/2000/svg" xmlns:xlink="http://www.w3.org/1999/xlink" x="0px" y="0px"
	 viewBox="0 0 437 478" style="enable-background:new 0 0 437 478;" xml:space="preserve">
<style type="text/css">
	.st0{fill-rule:evenodd;clip-rule:evenodd;fill:#51B1E8;}
</style>
<path class="st0" d="M371.9,335.4h59.6v42.1h-59.6v57.6h-37.5v-57.6H277v-42.1h57.4v-57.6h37.5V335.4z M295,247.5v54.7h-48V54
	c0-12.8,10.3-23.1,23-23.1h35.5c12.7,0,23,10.3,23,23.1v193.5H295z M196.9,90.6c12.7,0,23,10.3,23,22.9v249.9
	c0,12.7-10.3,22.9-23,22.9h-35.5c-12.7,0-23-10.3-23-22.9V113.5c0-12.7,10.3-22.9,23-22.9H196.9z M88.4,163.8
	c12.7,0,23,10.4,23,23.2v178.9c0,12.8-10.3,23.2-23,23.2H52.9c-12.7,0-23-10.4-23-23.2V187c0-12.8,10.3-23.2,23-23.2H88.4z"/>
</svg>
