<?xml version="1.0" encoding="utf-8"?>
<!-- Generator: Adobe Illustrator 22.1.0, SVG Export Plug-In . SVG Version: 6.00 Build 0)  -->
<svg version="1.1" id="Layer_1" xmlns="http://www.w3.org/2000/svg" xmlns:xlink="http://www.w3.org/1999/xlink" x="0px" y="0px"
	 viewBox="0 0 150 150" style="enable-background:new 0 0 150 150;" xml:space="preserve">
<style type="text/css">
	.st0{fill:#96A3B4;}
</style>
<g id="Layer_1_1_">
	<g>
		<g>
			<g>
				<path class="st0" d="M75,133.5c-29.2,0-53-23.8-53-53s23.8-53,53-53s53,23.8,53,53S104.2,133.5,75,133.5z M75,39
					c-22.9,0-41.5,18.6-41.5,41.5S52.1,122,75,122s41.5-18.6,41.5-41.5S97.9,39,75,39z"/>
			</g>
		</g>
		<g>
			<g>
				<path class="st0" d="M76.6,82.1c0,2.1-1.7,3.9-3.9,3.9l0,0c-2.1,0-3.9-1.7-3.9-3.9V53.6c0-2.1,1.7-3.9,3.9-3.9l0,0
					c2.1,0,3.9,1.7,3.9,3.9V82.1z"/>
			</g>
		</g>
		<g>
			<g>
				<path class="st0" d="M71.4,86.3c-2-0.8-3-3.1-2.2-5.1l0,0c0.8-2,3.1-3,5.1-2.2l21.4,8.7c2,0.8,3,3.1,2.2,5.1l0,0
					c-0.8,2-3.1,3-5.1,2.2L71.4,86.3z"/>
			</g>
		</g>
		<g>
			<path class="st0" d="M83.6,25.2H66.4c-2.2,0-4-1.8-4-4v-4.9c0-2.2,1.8-4,4-4h17.2c2.2,0,4,1.8,4,4v4.9
				C87.6,23.4,85.8,25.2,83.6,25.2z"/>
		</g>
	</g>
</g>
</svg>
