<?xml version="1.0" encoding="utf-8"?>
<!-- Generator: Adobe Illustrator 20.0.0, SVG Export Plug-In . SVG Version: 6.00 Build 0)  -->
<svg version="1.1" id="Layer_1" xmlns="http://www.w3.org/2000/svg" xmlns:xlink="http://www.w3.org/1999/xlink" x="0px" y="0px"
	 viewBox="0 0 437 478" style="enable-background:new 0 0 437 478;" xml:space="preserve">
<style type="text/css">
	.st0{fill:#52B2E9;}
</style>
<g>
	<g>
		<polygon class="st0" points="320.4,438.8 320.4,355.3 404,355.3 404,299.3 320.4,299.3 320.4,215.1 264.5,215.1 264.5,299.3 
			180.2,299.3 180.2,355.3 264.5,355.3 264.5,438.8 		"/>
	</g>
	<path class="st0" d="M346,184.7v88.4l58.7-58.7c5.5-5.5,8.3-12.4,8.3-19.3V56.2c0-15.2-11.7-27.6-26.9-27.6l-136.8-1.4
		c-7.6,0-13.8,4.1-19.3,9L19.3,247.5c-11.1,11.1-11.1,28.3,0,39.4l136.8,136.8c11.1,11.1,28.3,11.1,39.4,0l42.8-42.8h-88.4V268.9
		h84.3v-84.3L346,184.7z M292.1,92.8c15.2-15.2,40.1-15.2,55.9,0c15.2,15.2,15.2,40.1,0,55.9c-15.2,15.2-40.1,15.2-55.9,0
		C276.9,132.9,276.9,108,292.1,92.8z"/>
</g>
</svg>
