<?xml version="1.0" encoding="utf-8"?>
<!-- Generator: Adobe Illustrator 22.1.0, SVG Export Plug-In . SVG Version: 6.00 Build 0)  -->
<svg version="1.1" id="Layer_1" xmlns="http://www.w3.org/2000/svg" xmlns:xlink="http://www.w3.org/1999/xlink" x="0px" y="0px"
	 viewBox="0 0 150 150" style="enable-background:new 0 0 150 150;" xml:space="preserve">
<style type="text/css">
	.st0{fill-rule:evenodd;clip-rule:evenodd;fill:#51B2E9;}
</style>
<g>
	<g>
		<path class="st0" d="M112.5,28.6H94.9v-8c0-6.1-2-8-8-8H63.1c-5.5,0-8,2.7-8,8v8H37.5c-3.5,0-6.4,2.7-6.4,6c0,3.3,2.9,6,6.4,6
			h74.9c3.5,0,6.4-2.7,6.4-6C118.9,31.2,116,28.6,112.5,28.6z M87,28.6H63.1v-8H87V28.6z"/>
	</g>
	<g>
		<path class="st0" d="M30.9,49.8l8.7,76.6c0.1,0.5,0.3,1.1,0.6,1.9c0.5,1.3,1.2,2.5,2.1,3.7c2.7,3.4,6.7,5.5,11.9,5.5h41.5
			c5.2,0,9.2-2.1,11.9-5.5c0.9-1.2,1.6-2.4,2.1-3.7c0.3-0.8,0.5-1.4,0.7-2.1l8.7-76.4H30.9z M102.9,124.8c0,0.1-0.1,0.3-0.2,0.5
			c-0.3,0.6-0.6,1.3-1.1,1.9c-1.3,1.7-3.1,2.6-5.9,2.6H54.3c-2.8,0-4.6-1-5.9-2.6c-0.5-0.6-0.8-1.2-1.1-1.9
			c-0.1-0.2-0.2-0.4-0.2-0.5l-7.7-67.5h71.3L102.9,124.8z"/>
	</g>
</g>
</svg>
