<?xml version="1.0" encoding="utf-8"?>
<!-- Generator: Adobe Illustrator 22.1.0, SVG Export Plug-In . SVG Version: 6.00 Build 0)  -->
<svg version="1.1" id="Layer_1" xmlns="http://www.w3.org/2000/svg" xmlns:xlink="http://www.w3.org/1999/xlink" x="0px" y="0px"
	 viewBox="0 0 150 150" style="enable-background:new 0 0 150 150;" xml:space="preserve">
<style type="text/css">
	.st0{fill:#51B1E8;}
</style>
<path class="st0" d="M78.7,49.9v-28L96,39.8c1.4,1.5,3.8,1.5,5.2,0c1.4-1.5,1.4-3.9,0-5.4L77.6,10c-1.5-1.5-3.8-1.5-5.2,0L48.8,34.4
	c-0.7,0.8-1.1,1.7-1.1,2.7c0,1,0.4,2,1.1,2.7c1.4,1.5,3.8,1.5,5.2,0l17.3-17.9v28.1H28.9l9.1,79.6c0.1,0.5,0.3,1.1,0.6,2
	c0.5,1.3,1.3,2.6,2.2,3.8c2.8,3.6,7,5.7,12.4,5.7h43.3c5.5,0,9.6-2.2,12.4-5.7c1-1.2,1.7-2.5,2.2-3.9c0.3-0.8,0.5-1.5,0.7-2.2
	l9.1-79.4H78.7z M104.2,128c0,0.1-0.1,0.3-0.2,0.6c-0.3,0.7-0.7,1.3-1.1,2c-1.4,1.7-3.3,2.7-6.2,2.7H53.3c-2.9,0-4.8-1-6.2-2.7
	c-0.5-0.6-0.9-1.3-1.1-2c-0.1-0.3-0.2-0.4-0.2-0.6l-8-70.2h33.5v34c0,2.1,1.6,3.8,3.7,3.8c2,0,3.7-1.7,3.7-3.8V57.8h33.5L104.2,128z
	"/>
</svg>
