<?xml version="1.0" encoding="utf-8"?>
<!-- Generator: Adobe Illustrator 22.1.0, SVG Export Plug-In . SVG Version: 6.00 Build 0)  -->
<svg version="1.1" id="Layer_1" xmlns="http://www.w3.org/2000/svg" xmlns:xlink="http://www.w3.org/1999/xlink" x="0px" y="0px"
	 viewBox="0 0 150 150" style="enable-background:new 0 0 150 150;" xml:space="preserve">
<g>
	<g>
		<defs>
			<path id="SVGID_1_" d="M56.5,117.3H32.1V92.4c0-1.6-1.3-2.9-2.9-2.9h-9.3c-1.6,0-2.9,1.3-2.9,2.9v32.5c0,4.2,3.4,7.6,7.6,7.6
				h31.9c1.6,0,2.9-1.3,2.9-2.9v-9.3C59.4,118.6,58.1,117.3,56.5,117.3z"/>
		</defs>
		<use xlink:href="#SVGID_1_"  style="overflow:visible;fill:#51B0E7;"/>
		<clipPath id="SVGID_2_">
			<use xlink:href="#SVGID_1_"  style="overflow:visible;"/>
		</clipPath>
	</g>
	<g>
		<defs>
			<path id="SVGID_3_" d="M19.9,57.3h9.3c1.6,0,2.9-1.3,2.9-2.9V31.7h24.3c1.6,0,2.9-1.3,2.9-2.9v-9.3c0-1.6-1.3-2.9-2.9-2.9H24.5
				c-4.2,0-7.6,3.4-7.6,7.6v30.3C17,56,18.3,57.3,19.9,57.3z"/>
		</defs>
		<use xlink:href="#SVGID_3_"  style="overflow:visible;fill:#51B0E7;"/>
		<clipPath id="SVGID_4_">
			<use xlink:href="#SVGID_3_"  style="overflow:visible;"/>
		</clipPath>
	</g>
	<g>
		<defs>
			<path id="SVGID_5_" d="M130,89.5h-9.3c-1.6,0-2.9,1.3-2.9,2.9v24.9H94.5c-1.6,0-2.9,1.3-2.9,2.9v9.3c0,1.6,1.3,2.9,2.9,2.9h30.9
				c4.2,0,7.6-3.4,7.6-7.6V92.4C133,90.8,131.6,89.5,130,89.5z"/>
		</defs>
		<use xlink:href="#SVGID_5_"  style="overflow:visible;fill:#51B0E7;"/>
		<clipPath id="SVGID_6_">
			<use xlink:href="#SVGID_5_"  style="overflow:visible;"/>
		</clipPath>
	</g>
	<g>
		<defs>
			<path id="SVGID_7_" d="M125.3,16.5H94.5c-1.6,0-2.9,1.3-2.9,2.9v9.3c0,1.6,1.3,2.9,2.9,2.9h23.2v22.7c0,1.6,1.3,2.9,2.9,2.9h9.3
				c1.6,0,2.9-1.3,2.9-2.9V24.1C133,19.9,129.6,16.5,125.3,16.5z"/>
		</defs>
		<use xlink:href="#SVGID_7_"  style="overflow:visible;fill:#51B0E7;"/>
		<clipPath id="SVGID_8_">
			<use xlink:href="#SVGID_7_"  style="overflow:visible;"/>
		</clipPath>
	</g>
	<g>
		<defs>
			<circle id="SVGID_9_" cx="75" cy="74.6" r="19.4"/>
		</defs>
		<use xlink:href="#SVGID_9_"  style="overflow:visible;fill-rule:evenodd;clip-rule:evenodd;fill:#51B0E7;"/>
		<clipPath id="SVGID_10_">
			<use xlink:href="#SVGID_9_"  style="overflow:visible;"/>
		</clipPath>
	</g>
</g>
</svg>
