<?xml version="1.0" encoding="utf-8"?>
<!-- Generator: Adobe Illustrator 22.0.1, SVG Export Plug-In . SVG Version: 6.00 Build 0)  -->
<svg version="1.1" id="Layer_1" xmlns="http://www.w3.org/2000/svg" xmlns:xlink="http://www.w3.org/1999/xlink" x="0px" y="0px"
	 viewBox="0 0 150 150" style="enable-background:new 0 0 150 150;" xml:space="preserve">
<style type="text/css">
	.st0{fill:#EE6557;}
</style>
<g id="Layer_1_1_">
	<g>
		<g>
			<g>
				<path class="st0" d="M69.4,14.8c0,0,0,1.1,0,1.3c0.3,2.5,1.3,19.2-14.7,35.2C37.4,68.7,29,68.4,29,92.3
					c0,23.1,21.5,42.9,45.2,42.9c11.5,0,24.2-3.7,35.3-16c13.7-15.2,11.6-36.7,11.1-43.1c-0.4-6.1-2.4-15.6-4.3-17.6
					c0,0-3.8,9.4-13.3,9.4C103,67.9,106.2,26.9,69.4,14.8z"/>
			</g>
		</g>
		<g>
			<g>
				<path class="st0" d="M62.4,18.7c0,0-8.1,37.9-29.6,37.9C32.7,56.6,26.6,33.2,62.4,18.7z"/>
			</g>
		</g>
	</g>
</g>
</svg>
