<?xml version="1.0" encoding="utf-8"?>
<!-- Generator: Adobe Illustrator 22.0.1, SVG Export Plug-In . SVG Version: 6.00 Build 0)  -->
<svg version="1.1" id="Layer_1" xmlns="http://www.w3.org/2000/svg" xmlns:xlink="http://www.w3.org/1999/xlink" x="0px" y="0px"
	 viewBox="0 0 150 150" style="enable-background:new 0 0 150 150;" xml:space="preserve">
<style type="text/css">
	.st0{fill:#EE6557;}
	.st1{fill:#FFFFFF;}
</style>
<g id="Layer_1_1_">
	<g>
		<g>
			<path class="st0" d="M108.9,93.1c-11.3,0-20.4,9.1-20.4,20.4s9.1,20.4,20.4,20.4s20.4-9.1,20.4-20.4S120.1,93.1,108.9,93.1z
				 M117.7,119.4c0.8,0.8,0.8,2.2,0,3.1c-0.8,0.8-2.2,0.8-3.1,0l-5.8-5.8l-5.8,5.8c-0.8,0.8-2.2,0.8-3.1,0c-0.8-0.8-0.8-2.2,0-3.1
				l5.8-5.8l-5.8-5.8c-0.8-0.8-0.8-2.2,0-3.1c0.8-0.8,2.2-0.8,3.1,0l5.8,5.8l5.8-5.8c0.8-0.8,2.2-0.8,3.1,0c0.8,0.8,0.8,2.2,0,3.1
				l-5.8,5.8L117.7,119.4z"/>
		</g>
		<g>
			<path class="st1" d="M98.1,46.9H46.6c-0.7,0-1.3-0.6-1.3-1.3v-2.3c0-0.7,0.6-1.3,1.3-1.3H98c0.7,0,1.3,0.6,1.3,1.3v2.3
				C99.4,46.3,98.8,46.9,98.1,46.9z"/>
		</g>
		<g>
			<path class="st1" d="M98.1,66.6H46.6c-0.7,0-1.3-0.6-1.3-1.3V63c0-0.7,0.6-1.3,1.3-1.3H98c0.7,0,1.3,0.6,1.3,1.3v2.3
				C99.4,66,98.8,66.6,98.1,66.6z"/>
		</g>
		<g>
			<path class="st1" d="M98.1,86.3H46.6c-0.7,0-1.3-0.6-1.3-1.3v-2.3c0-0.7,0.6-1.3,1.3-1.3H98c0.7,0,1.3,0.6,1.3,1.3V85
				C99.4,85.7,98.8,86.3,98.1,86.3z"/>
		</g>
		<g>
			<path class="st1" d="M31.3,121.4V26.5h82.9v61.4c4.2,0.8,7.7,2.5,10.5,4.8V26.3c0-5.7-4.6-10.3-10.3-10.3H31.1
				c-5.7,0-10.4,4.5-10.4,10.3v95.4c0,5.7,4.7,10.3,10.4,10.3h59.1c-2.9-2.8-5-6.3-6.3-10.5L31.3,121.4L31.3,121.4z"/>
		</g>
		<g>
			<path class="st1" d="M47.6,100.3c-1.3,0-2.3,1.3-2.3,2.6v0.6c0,1.3,1,2.4,2.3,2.4h36.2c0.6-2.1,1.3-3.5,2.3-5.6H47.6z"/>
		</g>
	</g>
</g>
</svg>
