<?xml version="1.0" encoding="utf-8"?>
<!-- Generator: Adobe Illustrator 22.0.1, SVG Export Plug-In . SVG Version: 6.00 Build 0)  -->
<svg version="1.1" id="Layer_1" xmlns="http://www.w3.org/2000/svg" xmlns:xlink="http://www.w3.org/1999/xlink" x="0px" y="0px"
	 viewBox="0 0 150 150" style="enable-background:new 0 0 150 150;" xml:space="preserve">
<style type="text/css">
	.st0{fill:#FFFFFF;}
	.st1{fill:#EED657;}
</style>
<g id="Layer_1_1_">
	<g>
		<g>
			<path class="st0" d="M92.6,45H41.2c-0.7,0-1.3-0.6-1.3-1.3v-2.2c0-0.7,0.6-1.3,1.3-1.3h51.4c0.7,0,1.3,0.6,1.3,1.3v2.2
				C93.9,44.4,93.3,45,92.6,45z"/>
		</g>
		<g>
			<path class="st0" d="M92.6,64.6H41.2c-0.7,0-1.3-0.6-1.3-1.3V61c0-0.7,0.6-1.3,1.3-1.3h51.4c0.7,0,1.3,0.6,1.3,1.3v2.2
				C93.9,64,93.3,64.6,92.6,64.6z"/>
		</g>
		<g>
			<path class="st0" d="M92.6,84.3H41.2c-0.7,0-1.3-0.6-1.3-1.3v-2.2c0-0.7,0.6-1.3,1.3-1.3h51.4c0.7,0,1.3,0.6,1.3,1.3V83
				C93.9,83.7,93.3,84.3,92.6,84.3z"/>
		</g>
		<g>
			<path class="st0" d="M72.7,122.3L74,120H25.8V24.6h82.8V78c2.8,1,5.6,3.1,7.4,6.3l3.1,5.3v-65c0-5.7-4.8-10.5-10.5-10.5H25.5
				c-5.7,0-10.2,4.8-10.2,10.5v95.2c0,5.7,4.5,10.7,10.2,10.7h45.2C70.5,127.8,71.2,125,72.7,122.3z"/>
		</g>
		<g>
			<path class="st0" d="M41.9,99c-1.3,0-2.1,0.9-2.1,2.2v0.6c0,1.3,0.8,2.2,2.1,2.2h41.2l3-4.9L41.9,99L41.9,99z"/>
		</g>
		<g>
			<g>
				<path class="st1" d="M133.3,124.7l-21.8-37.8c-1.6-2.8-3.8-4.3-6.2-4.3c-2.4,0-4.6,1.5-6.2,4.3l-21.8,37.8
					c-1.6,2.8-1.8,5.7-0.6,7.7c1.2,2.1,3.6,3.5,6.8,3.5h43.6c3.2,0,5.6-1.4,6.8-3.5C135.1,130.3,134.9,127.4,133.3,124.7z
					 M127.3,128.7c-0.1,0-0.1,0.3-0.2,0.3H83.5c-0.1,0-0.1-0.3-0.2-0.3c0-0.1,0.1-0.3,0.1-0.3l21.8-37.8c0-0.1,0.1-0.1,0.1-0.2
					l0.1,0.1l21.8,37.9C127.2,128.4,127.3,128.6,127.3,128.7z"/>
			</g>
			<g>
				<circle class="st1" cx="105.2" cy="121.7" r="3.4"/>
			</g>
			<g>
				<path class="st1" d="M101.6,101.1c-0.1,0,0.3,0,0.3,0.2v13.5v1.9h6.5v-14.4V101L101.6,101.1L101.6,101.1z"/>
			</g>
		</g>
	</g>
</g>
</svg>
