<?xml version="1.0" encoding="utf-8"?>
<!-- Generator: Adobe Illustrator 22.0.1, SVG Export Plug-In . SVG Version: 6.00 Build 0)  -->
<svg version="1.1" id="Layer_1" xmlns="http://www.w3.org/2000/svg" xmlns:xlink="http://www.w3.org/1999/xlink" x="0px" y="0px"
	 viewBox="0 0 150 150" style="enable-background:new 0 0 150 150;" xml:space="preserve">
<style type="text/css">
	.st0{fill:#EE6557;}
	.st1{fill:#FFFFFF;}
</style>
<g>
	<g id="Layer_1-2">
		<path class="st0" d="M108.1,95.9c-9.5,0.2-17.2,8.2-17,17.7s8.2,17.2,17.7,17c9.4-0.2,17-7.9,17-17.3
			C125.8,103.5,117.8,95.8,108.1,95.9L108.1,95.9z M115.7,118.2c0.7,0.7,0.7,2-0.1,2.7c-0.7,0.7-1.9,0.7-2.6,0l-5-4.9l-5,4.9
			c-0.7,0.7-2,0.7-2.7-0.1c-0.7-0.7-0.7-1.9,0-2.6l5-4.9l-5-4.9c-0.7-0.7-0.7-2,0.1-2.7c0.7-0.7,1.9-0.7,2.6,0l5,4.9l5-4.9
			c0.7-0.7,1.9-0.8,2.7-0.1c0.7,0.7,0.8,1.9,0.1,2.7c0,0,0,0.1-0.1,0.1l-5,4.9L115.7,118.2z M87.3,90.6c-0.2-2.6-0.9-6.4-1.8-7.3
			c0,0-1.6,3.9-5.4,3.9c0,0,1.2-17-13.6-22v0.6c0.1,1,0.6,8-6,14.6c-7,7.1-10.5,7-10.5,17c0,9.6,8.7,17.7,18.3,17.7
			c5.3,0.1,10.4-2.2,13.8-6.1v-0.4c0.1-0.3,0.1-0.6,0.2-0.8c0.1-0.2,0.1-0.4,0.1-0.6c0-0.1,0-0.2,0.1-0.3c0-0.2,0.1-0.4,0.2-0.6
			c0-0.1,0.1-0.3,0.1-0.4c0-0.1,0.1-0.4,0.2-0.6s0.1-0.4,0.2-0.5c0-0.1,0.1-0.3,0.2-0.4c0.1-0.2,0.1-0.4,0.2-0.5
			c0.1-0.3,0.3-0.6,0.4-0.9c0.2-0.3,0.3-0.7,0.5-0.9c0-0.1,0-0.1,0.1-0.2c0.1-0.3,0.3-0.5,0.5-0.8v-0.1c0.2-0.3,0.4-0.7,0.6-0.9l0,0
			c0.2-0.3,0.5-0.7,0.7-0.9c0.2-0.3,0.4-0.5,0.6-0.8l0,0C87.4,95.8,87.5,93.2,87.3,90.6z M50.2,77.7c8.9,0,12.3-12.4,12.3-12.4
			C47.7,70,50.2,77.7,50.2,77.7z M87.3,90.6c-0.2-2.6-0.9-6.4-1.8-7.3c0,0-1.6,3.9-5.4,3.9c0,0,1.2-17-13.6-22v0.6
			c0.1,1,0.6,8-6,14.6c-7,7.1-10.5,7-10.5,17c0,9.6,8.7,17.7,18.3,17.7c5.3,0.1,10.4-2.2,13.8-6.1v0.3c0-0.1,0-0.2,0.1-0.3v-0.4
			c0.1-0.3,0.1-0.6,0.2-0.8c0.1-0.2,0.1-0.4,0.1-0.6c0-0.1,0-0.2,0.1-0.3c0-0.2,0.1-0.4,0.2-0.6c0-0.1,0.1-0.3,0.1-0.4
			c0-0.1,0.1-0.4,0.2-0.6c0.1-0.2,0.1-0.4,0.2-0.5c0-0.1,0.1-0.3,0.2-0.4c0.1-0.2,0.1-0.4,0.2-0.5c0.1-0.3,0.3-0.6,0.4-0.9
			c0.2-0.3,0.3-0.7,0.5-0.9c0-0.1,0-0.1,0.1-0.2c0.1-0.3,0.3-0.5,0.5-0.8v-0.1c0.2-0.3,0.4-0.7,0.6-0.9l0,0c0.2-0.3,0.5-0.7,0.7-0.9
			c0.2-0.2,0.4-0.5,0.6-0.8l0,0C87.5,95.8,87.5,93.2,87.3,90.6z M50.2,77.7c8.9,0,12.3-12.4,12.3-12.4C47.7,70,50.2,77.7,50.2,77.7z
			 M50.2,77.7c8.9,0,12.3-12.4,12.3-12.4C47.7,70,50.2,77.7,50.2,77.7z M87.3,90.6c-0.2-2.6-0.9-6.4-1.8-7.3c0,0-1.6,3.9-5.4,3.9
			c0,0,1.2-17-13.6-22v0.6c0.1,1,0.6,8-6,14.6c-7,7.1-10.5,7-10.5,17c0,9.6,8.7,17.7,18.3,17.7c5.3,0.1,10.4-2.2,13.8-6.1l0,0v-0.4
			c0.1-0.3,0.1-0.6,0.2-0.8c0.1-0.2,0.1-0.4,0.1-0.6c0-0.1,0-0.2,0.1-0.3c0-0.2,0.1-0.4,0.2-0.6c0-0.1,0.1-0.3,0.1-0.4
			c0-0.1,0.1-0.4,0.2-0.6s0.1-0.4,0.2-0.5c0-0.1,0.1-0.3,0.2-0.4c0.1-0.2,0.1-0.4,0.2-0.5c0.1-0.3,0.3-0.6,0.4-0.9
			c0.2-0.3,0.3-0.7,0.5-0.9c0-0.1,0-0.1,0.1-0.2c0.1-0.3,0.3-0.5,0.5-0.8v-0.1c0.2-0.3,0.4-0.7,0.6-0.9l0,0c0.2-0.3,0.5-0.7,0.7-0.9
			c0.2-0.3,0.4-0.5,0.6-0.8l0,0C87.4,95.8,87.5,93.2,87.3,90.6z"/>
	</g>
	<path class="st1" d="M103.6,47.5L94,31.7c-2-2.4-4.8-3.7-7.9-3.8H43.7c-3.1,0-6,1.5-8,3.9l-9.8,16c-1.1,1.8-1.8,3.8-1.8,6v67.6
		c0,6.9,5.5,12.5,12.4,12.5l0,0h54.5c-3.7-2.8-6.6-6.4-8.4-10.7H36.6c-1.1,0.1-2.1-0.6-2.3-1.8v-0.1V53.7c0-0.1,0-0.1,0.1-0.2
		l9.1-14.9h42.7l9.2,14.7c0,0.1,0.2,0.2,0.2,0.2v37.2c3-1.5,6.2-2.3,9.5-2.5V53.5C105.2,51.4,104.7,49.3,103.6,47.5z"/>
	<path class="st1" d="M56,46.2c-0.4-0.4-1-0.3-1.3,0c-0.1,0.1-0.1,0.1-0.1,0.2L40.8,66.5c-0.4,0.6-0.4,1.5,0.1,2
		c0.2,0.1,0.3,0.2,0.5,0.3c0.4,0.1,0.8-0.1,0.9-0.5l13.8-20.1C56.6,47.5,56.6,46.7,56,46.2z"/>
	<path class="st1" d="M50,45.1c-0.2-0.3-0.6-0.3-0.9-0.1c-0.1,0.1-0.2,0.2-0.2,0.3l-6.2,9.4c-0.3,0.5-0.3,1.1,0,1.6
		c0.1,0.1,0.2,0.2,0.3,0.2c0.3,0,0.5-0.1,0.7-0.4l6.2-9.4C50.5,46.3,50.3,45.6,50,45.1z"/>
	<path class="st1" d="M90.2,16.1H39c-1.3,0-2.5,0.6-2.5,1.2v3.7c0,0.7,1,1.2,2.5,1.2h51.3c1.3,0,2.5-0.6,2.5-1.2v-3.6
		C92.7,16.6,91.7,16.1,90.2,16.1z"/>
</g>
</svg>
