<?xml version="1.0" encoding="utf-8"?>
<!-- Generator: Adobe Illustrator 22.0.1, SVG Export Plug-In . SVG Version: 6.00 Build 0)  -->
<svg version="1.1" id="Layer_1" xmlns="http://www.w3.org/2000/svg" xmlns:xlink="http://www.w3.org/1999/xlink" x="0px" y="0px"
	 viewBox="0 0 150 150" style="enable-background:new 0 0 150 150;" xml:space="preserve">
<style type="text/css">
	.st0{fill:#96A3B3;}
</style>
<g>
	<path class="st0" d="M128.1,105.8c-4.8,6.3-10.6,8.5-16,8.9c-11.1,0.8-21.8-8.1-22.6-19.2c-0.8-11.5,3.1-11.7,10.7-20.6
		c6.9-8.2,5.9-16.3,5.7-17.5c0-0.1-0.1-0.6-0.1-0.6c17.6,4.6,17.5,24.5,17.5,24.5c4.5-0.3,5.9-5,5.9-5c1,0.9,2.2,5.4,2.6,8.3
		C132.3,87.7,134,98,128.1,105.8z"/>
	<path class="st0" d="M111.3,32.3c-0.1-1.1-0.6-2.2-1.4-3C84.1,6.3,52.9,1,39.3,17.2c-6.8,8.1-8.1,20.1-3.7,33.8
		c3.8,11.7,11.6,23.6,22,33.7l-39,50.3c-1.5,1.8-1.3,4.6,0.4,6.1c0.9,0.8,2,1.1,3.1,1.1c1.1-0.1,2.1-0.6,2.9-1.5
		c3-3.6,83.9-103.6,85.3-105.2C111,34.6,111.3,33.5,111.3,32.3z M86.2,23.3l-8.4,10c-3.6-2.7-7.1-5.2-10.5-7.4l6.4-7.7
		C77.8,19.4,82,21.1,86.2,23.3z M74.5,37.2l-11.8,14c-3.1-3.3-5.9-6.6-8.4-9.7L63.9,30C67.2,32,70.7,34.4,74.5,37.2z M68.1,17
		l-5.2,6.3c-3.8-2.2-7.3-4-10.5-5.1C57.3,16.2,62.9,16.2,68.1,17z M45.7,22.9c0.3-0.3,0.6-0.7,0.9-1c2.9,0.4,7.4,2.2,13,5.4
		l-8.4,10.1c-2.4-3.3-5.8-8.4-7-12.4C44.6,24.3,45.1,23.6,45.7,22.9z M41.7,32c1.7,3.2,3.9,6.4,6.1,9.4l-4.6,5.5
		C41.6,41.4,41.1,36.4,41.7,32z M45.2,52.5l5.8-7c2.5,3.1,5.3,6.3,8.4,9.6l-7.7,9.2C49.1,60.5,46.9,56.5,45.2,52.5z M63.2,78.1
		c-3.1-3-5.9-6.2-8.4-9.5l8.2-9.7c2.9,2.9,5.9,5.9,9,8.8L63.2,78.1z M75.2,63.8c-3.2-2.9-6.2-5.9-9-8.8l12.3-14.7
		c3.1,2.4,6.3,5.1,9.7,8L75.2,63.8z M91.5,44.4c-3.1-2.7-6.4-5.4-9.7-8l8.9-10.6c3.5,2.1,7,4.5,10.3,7.3L91.5,44.4z"/>
</g>
</svg>
