<?xml version="1.0" encoding="utf-8"?>
<!-- Generator: Adobe Illustrator 18.1.1, SVG Export Plug-In . SVG Version: 6.00 Build 0)  -->
<!DOCTYPE svg PUBLIC "-//W3C//DTD SVG 1.1//EN" "http://www.w3.org/Graphics/SVG/1.1/DTD/svg11.dtd">
<svg version="1.1" id="Layer_1" xmlns="http://www.w3.org/2000/svg" xmlns:xlink="http://www.w3.org/1999/xlink" x="0px" y="0px"
	 viewBox="0 0 150 150" enable-background="new 0 0 150 150" xml:space="preserve">
<g>
	<g>
		<path fill="#CBDDF2" d="M101.9,119.6v-17.9H83.8V89.3h18.1V71.4h12v17.9H132v12.4h-18.1v17.9C113.9,119.6,101.9,119.6,101.9,119.6
			z"/>
	</g>
	<path fill="#CBDDF2" d="M95.6,83.4V65.6h16.2c-0.8-2.8-3.3-4.7-6.3-4.7H28.1c-3.6,0-6.6,3.7-6.6,7.2v14.3c0,3.6,2.9,5.6,6.6,5.6
		h49.7v-4.7H95.6z M31.4,80.8c-2.6,0-4.7-2.1-4.7-4.7c0-2.6,2.1-4.7,4.7-4.7s4.7,2.1,4.7,4.7C36.1,78.7,34,80.8,31.4,80.8z"/>
	<path fill="#CBDDF2" d="M111.6,36.5c0-3.6-2.9-6.5-6.5-6.5H28c-3.6,0-6.5,2.9-6.5,6.5v14.2c0,3.6,2.9,6.5,6.5,6.5h77
		c3.6,0,6.5-2.9,6.5-6.5L111.6,36.5L111.6,36.5z M31.4,39.9c2.6,0,4.7,2.1,4.7,4.7c0,2.5-2.1,4.7-4.7,4.7s-4.7-2.1-4.7-4.7
		C26.7,42,28.9,39.9,31.4,39.9z"/>
	<path fill="#CBDDF2" d="M77.8,105.9V91.9H28.1c-3.6,0-6.6,3.8-6.6,7.4v14.3c0,3.6,2.9,5.4,6.6,5.4h67.5v-13.1
		C95.6,105.9,77.8,105.9,77.8,105.9z M31.4,111.5c-2.6,0-4.7-2.1-4.7-4.7c0-2.6,2.1-4.7,4.7-4.7s4.7,2.1,4.7,4.7
		S34,111.5,31.4,111.5z"/>
</g>
</svg>
