<?xml version="1.0" encoding="utf-8"?>
<!-- Generator: Adobe Illustrator 18.1.1, SVG Export Plug-In . SVG Version: 6.00 Build 0)  -->
<!DOCTYPE svg PUBLIC "-//W3C//DTD SVG 1.1//EN" "http://www.w3.org/Graphics/SVG/1.1/DTD/svg11.dtd">
<svg version="1.1" id="Layer_1" xmlns="http://www.w3.org/2000/svg" xmlns:xlink="http://www.w3.org/1999/xlink" x="0px" y="0px"
	 viewBox="0 0 150 150" enable-background="new 0 0 150 150" xml:space="preserve">
<path fill="#CBDDF2" d="M122.8,87.4c-4.9-2.1-8.1-6.8-8.1-12c0-5.3,3.2-10,8.2-12.1c1.1-0.5,1.8-1.7,1.4-2.9
	c-0.8-2.9-2.1-5.8-3.5-8.5c-0.6-1.1-1.9-1.6-3-1.1c-1.6,0.7-3.4,1-5.2,1c-3.5,0-6.8-1.3-9.2-3.8c-3.8-3.8-4.9-9.5-2.7-14.4
	c0.5-1.1,0-2.4-1-3.1c-2.7-1.5-5.6-2.6-8.5-3.6c-1.2-0.4-2.4,0.3-2.9,1.4c-2,5-6.8,8.3-12.2,8.3c-5.3,0-10.3-3.4-12.2-8.4
	c-0.5-1.1-1.7-1.8-2.9-1.4c-2.9,0.9-5.8,2.1-8.5,3.6c-1.1,0.6-1.6,2-1,3.1c2.2,4.9,1.1,10.8-2.6,14.5c-2.4,2.4-5.7,3.8-9.2,3.8
	c-1.9,0-3.7-0.4-5.3-1.1c-1.1-0.5-2.5,0-3.1,1c-1.4,2.7-2.6,5.6-3.6,8.5c-0.4,1.2,0.3,2.4,1.4,2.9c5.1,2,8.3,6.7,8.3,12.2
	c0,5.3-3.2,10.1-8.2,12.1c-1.1,0.5-1.8,1.7-1.4,2.9c0.9,2.9,2.2,5.8,3.6,8.5c0.6,1.1,1.9,1.5,3,1c1.6-0.7,3.4-1,5.2-1
	c3.5,0,6.8,1.3,9.2,3.8c3.8,3.8,4.9,9.3,2.8,14.2c-0.5,1.1,0,2.4,1.1,3c2.7,1.4,5.6,2.6,8.5,3.5c0.2,0.1,0.5,0.1,0.7,0.1
	c0.9,0,1.8-0.6,2.2-1.5c2.1-4.9,6.7-8.1,12-8.1c5.2,0,9.9,3.1,12,8c0.5,1.1,1.7,1.7,2.9,1.3c2.9-0.9,5.7-2.1,8.5-3.6
	c1-0.6,1.6-1.9,1.1-3c-2-4.9-0.8-10.4,2.9-14.2c2.4-2.4,5.7-3.8,9.2-3.8c1.7,0,3.4,0.3,5,0.9c1.1,0.5,2.4,0,3-1.1
	c1.4-2.7,2.6-5.6,3.6-8.5C124.5,89.2,123.9,87.8,122.8,87.4z M75.9,101.2c-14.4,0-26.1-11.6-26.1-26.1S61.5,49,75.9,49
	S102,60.7,102,75.1S90.4,101.2,75.9,101.2z"/>
</svg>
