<?xml version="1.0" encoding="utf-8"?>
<!-- Generator: Adobe Illustrator 18.1.1, SVG Export Plug-In . SVG Version: 6.00 Build 0)  -->
<!DOCTYPE svg PUBLIC "-//W3C//DTD SVG 1.1//EN" "http://www.w3.org/Graphics/SVG/1.1/DTD/svg11.dtd">
<svg version="1.1" id="Layer_1" xmlns="http://www.w3.org/2000/svg" xmlns:xlink="http://www.w3.org/1999/xlink" x="0px" y="0px"
	 viewBox="0 0 150 150" enable-background="new 0 0 150 150" xml:space="preserve">
<g>
	<path fill="#CBDDF2" d="M109.8,40.7c-9.3-9.3-21.5-14-33.7-14s-24.4,4.7-33.7,14c-18.6,18.6-18.6,48.8,0,67.3
		c9.3,9.2,21.5,13.9,33.7,13.9s24.4-4.7,33.7-14C128.3,89.3,128.3,59.2,109.8,40.7z M104.4,102.7c-7.6,7.6-17.6,11.7-28.4,11.7
		s-20.8-4.2-28.4-11.7C32,87,32,61.5,47.6,45.8c7.6-7.6,17.6-11.7,28.4-11.7c10.7,0,20.8,4.2,28.4,11.7
		C120.1,61.6,120.1,87,104.4,102.7z"/>
	<path fill="#CBDDF2" d="M89.8,49.9c-3.3-2.2-7.7-3.4-13-3.4c-6.9,0-12.1,1.6-15.4,4.8c-3.2,3.1-5.1,7.1-5.6,12.1l13.5,1.7
		c0.4-2.8,1.1-4.8,2.3-6c1.3-1.3,3-2,5-2c1.9,0,3.3,0.5,4.2,1.3c0.9,0.9,1.4,2.2,1.4,3.8s-1.1,3.3-3.4,5.2c-3.8,3.2-6.3,5.4-7.4,6.7
		c-1,1.2-1.9,2.5-2.3,4c-0.6,1.5-0.8,3.4-0.8,5.8v0.8h13.2c0.1-1.8,0.5-3.3,1-4.5c0.8-1.3,2.3-3,5.1-5.1c3.6-2.8,6-5.2,7.1-7.2
		c1.1-1.9,1.7-3.9,1.7-5.9C96.5,56.8,94.3,52.9,89.8,49.9z"/>
	<circle fill="#CBDDF2" cx="75.4" cy="96.7" r="7.3"/>
</g>
</svg>
