<svg id="Layer_1" data-name="Layer 1" xmlns="http://www.w3.org/2000/svg" viewBox="0 0 343.65 328"><defs><style>.cls-1{fill:#cbddf2;}</style></defs><title>avatar</title><path class="cls-1" d="M304.25,259.08c-1.08-8.31-6.63-24.77-13.71-29.23-15.56-14.62-54.08-26.77-86.73-37.08,15.4-17.23,25.41-49.85,25.41-72.92,0-36.73-25.5-55.8-57.34-55.85h-.12c-31.83,0-57.34,19.12-57.34,55.85,0,23.07,10,55.69,25.42,72.92-32.66,10.31-71.17,22.46-86.73,37.08C46,234.31,40.48,250.77,39.4,259.08c-.15,1.07-1.08,1.84-1.08,2.92v8h267v-8C305.32,260.92,304.4,260.15,304.25,259.08Z"/></svg>