<svg id="Layer_1" data-name="Layer 1" xmlns="http://www.w3.org/2000/svg" viewBox="0 0 334.03 73.76">
  <defs>
    <style>
      .cls-1 {
        fill: #fff;
      }
      .cls-2 {
        fill: #55b1e3;
      }
    </style>
  </defs>
  <g>
    <path class="cls-1" d="M252.14,42.26c-3.23,21.66-10.74,28.22-28.29,28.22-17.2,0-24.44-7-21.21-29,3.14-20.86,10.3-28.22,28.55-28.22C248.3,13.24,255.37,20.6,252.14,42.26Zm-38.06,0c-2.36,15.11-.18,19.67,10,19.67s14.14-4.64,16.59-20.47c2.53-15.67.09-19.67-10-19.67C220.19,21.8,216.61,26.2,214.08,42.26Z" transform="translate(-10.92 -13.24)"/>
    <path class="cls-1" d="M112.79,29,99.84,62.38A13.08,13.08,0,0,1,88,70.59V71H80a3.32,3.32,0,0,1-3.23-2.78L68.69,29H79.88l5.39,34H86v.32a5.89,5.89,0,0,0,5.08-3.76L102.22,29Z" transform="translate(-10.92 -13.24)"/>
    <path class="cls-1" d="M149.93,69c-5.3,1.5-10.25,1.58-15.67,1.58-15.56,0-20.81-7.2-18.8-21.61,2.19-15.29,8.39-19.69,24.22-19.69,15,0,18.27,5.2,17.14,13s-6.47,10.73-17.22,11.37l-13.55,1c.18,6.64,3.76,7.93,9.62,7.93,4.55,0,10.44-.45,15.6-1Zm-11-21.79c4.72-.32,6.91-1.52,7.52-5.76.44-4.4-1.84-4.48-8-4.48-7.61.08-10.05,2.08-11.71,11.21Z" transform="translate(-10.92 -13.24)"/>
    <path class="cls-1" d="M315.84,51c-6.56-2.72-9.18-6.24-8.48-11.85,1-7.36,6.73-9.85,18.62-9.77a161.6,161.6,0,0,1,19,1.44l-2.54,6.64c-5.51-.16-9.26-.24-15.73-.24s-8.74.08-9.09,2.56,1.57,3.12,4.9,4.48l10.93,4.48c6.91,2.8,9.7,5.52,8.83,11.61-1.4,9.13-8.48,10.25-20.72,10.25-9.35,0-10.93-.56-17.57-1.28l2.58-6.8c3.5.24,8,.32,11.85.32,10.67,0,13-.64,13.55-3.12.35-2.4-1.49-2.72-5.16-4.24Z" transform="translate(-10.92 -13.24)"/>
    <path class="cls-1" d="M280.91,29.15c-15.3,0-21.59,5.68-23.86,20.49L251.48,87h11.11l2.63-17.74c2.9,1.14,6.09,1.38,10.53,1.38,14.86,0,21.33-5.5,23.6-20.31C301.72,35.13,295.86,29.15,280.91,29.15Zm7.52,20.41c-1.57,10.25-4.55,13.21-12.59,13.21a37.61,37.61,0,0,1-9.35-1.49s1-6.85,1.66-11c1.66-10.81,4.81-13.37,12.68-13.37C288.34,36.91,290,39.55,288.43,49.56Z" transform="translate(-10.92 -13.24)"/>
    <path class="cls-1" d="M198.09,29H183.54c-12.77,0-18.13,5-20.32,17h0l-3.72,25h10.58l3.53-25h0c1.54-8,4.34-10,10.49-10h11.25Z" transform="translate(-10.92 -13.24)"/>
    <path class="cls-2" d="M23.11,42.74c2.53-16.07,6.11-20.23,16.67-20.23,7.28,0,10.55,2.49,10.84,9.49H61.86c-.65-13-7.43-18-20.27-18H10.92l11.13,4.27c-5.57,4.28-8.61,12.07-10.38,23.81A52.93,52.93,0,0,0,11,49H22.4A45.64,45.64,0,0,1,23.11,42.74Z" transform="translate(-10.92 -13.24)"/>
    <path class="cls-1" d="M49.73,41.36c-2.44,15.83-6.37,20.41-16.59,20.41C26,61.77,22.81,60,22.32,53H11c.85,13,8.22,17.37,21.87,17.37,17.55,0,25.06-6.62,28.29-28.28A42.61,42.61,0,0,0,61.8,36H50.43C50.28,38,50,39.43,49.73,41.36Z" transform="translate(-10.92 -13.24)"/>
  </g>
</svg>